<svg xmlns="http://www.w3.org/2000/svg" width="11" height="13" viewBox="0 0 11 13">
  <defs>
    <style>
      .cls-1 {
        fill-rule: evenodd;
      }
    </style>
  </defs>
  <path class="cls-1" d="M797.233,423.016L797.092,423l0-.264c0-.972-1.02-0.972-1.02,0v0.255A5.641,5.641,0,0,0,791,428.3l0.125,0.015a1.856,1.856,0,0,1,1.7-1.171,1.685,1.685,0,0,1,.237.016,1.838,1.838,0,0,1,1.538,1.414l0.136,0a1.87,1.87,0,0,1,1.315-1.3l0.008,5.875a1.08,1.08,0,0,1-1.1.821,1.382,1.382,0,0,1-.192-0.011,1.441,1.441,0,0,1-1.12-.813c-0.367-.647-1.221-0.305-0.8.542a2.412,2.412,0,0,0,1.87,1.289,2.823,2.823,0,0,0,.343.023A1.876,1.876,0,0,0,797,433.6a2.889,2.889,0,0,0,.076-0.778v-5.507a1.84,1.84,0,0,1,1.18,1.268l0.15,0a1.857,1.857,0,0,1,1.774-1.369,1.613,1.613,0,0,1,.242.015,1.822,1.822,0,0,1,1.428,1.107l0.149-.017A5.564,5.564,0,0,0,797.233,423.016Z" transform="translate(-791 -422)"/>
</svg>
