<svg xmlns="http://www.w3.org/2000/svg" width="11" height="15" viewBox="0 0 11 15">
  <defs>
    <style>
      .cls-1 {
        fill-rule: evenodd;
      }
    </style>
  </defs>
  <path class="cls-1" d="M258.156,378.178c-1.13-.062-2.181-0.178-2.181-0.178A13.852,13.852,0,0,0,254,384.5c0.045,3.271,3.651,4.331,4.286,4.489a0.9,0.9,0,0,1,.771.924,1.605,1.605,0,0,1-.454,1.038c-0.612.654-3.061,0.248-3.061,1.038S258.122,393,259.489,393h0.023c1.367,0,3.946-.229,3.946-1.014s-2.45-.384-3.062-1.038a1.6,1.6,0,0,1-.453-1.038,0.9,0.9,0,0,1,.771-0.924c0.635-.158,4.241-1.218,4.286-4.489a13.864,13.864,0,0,0-1.973-6.5s-1.137.113-2.313,0.176" transform="translate(-254 -378)"/>
</svg>
