<svg id="Layer_1" data-name="Layer 1" xmlns="http://www.w3.org/2000/svg" width="349" height="27.5" viewBox="0 0 349 27.5">
  <title>logo</title>
  <path d="M11.4.1a10.7,10.7,0,0,1,4.1.7,11.56,11.56,0,0,1,3.2,2,10.19,10.19,0,0,1,2.1,3,10,10,0,0,1,.7,3.9,10,10,0,0,1-.7,3.9,8.13,8.13,0,0,1-2.1,3,9.62,9.62,0,0,1-3.2,2,10.7,10.7,0,0,1-4.1.7H7.5V27H0V0H11.4Zm-.7,12.5a2.86,2.86,0,0,0,2.1-.8,2.67,2.67,0,0,0,0-4A2.78,2.78,0,0,0,10.7,7H7.5v5.6h3.2ZM26.9.1H47V6.7H34.3v3.4H46v6.4H34.4v3.9H47.5V27H26.9V.1ZM77.1.1v27H70.2L60.3,13.2V27.1H52.8V.1h6.9L69.6,14V.1Z"/>
  <path d="M102.5,20.5a2.27,2.27,0,0,0,1.8.9l.9-.2v5.1a5.66,5.66,0,0,1-2.9.7,5.42,5.42,0,0,1-2.5-.6,5,5,0,0,1-1.7-1.3l-.6-.6-.7.7a7.17,7.17,0,0,1-2.2,1.1,9.37,9.37,0,0,1-3.7.7,8.87,8.87,0,0,1-6.1-2.1,6.38,6.38,0,0,1-2.3-5,8,8,0,0,1,.5-2.6,10.5,10.5,0,0,1,1.2-2.1c.5-.6,1-1,1.4-1.5s.9-.7,1.2-.9l.5-.3-.3-.3c-.2-.2-.4-.5-.8-.9a10.14,10.14,0,0,1-.9-1.3c-.3-.5-.5-1-.8-1.6a6.15,6.15,0,0,1-.3-1.8A6,6,0,0,1,86.3,2a7.33,7.33,0,0,1,5.2-2,7.76,7.76,0,0,1,5.4,1.9A6,6,0,0,1,99,6.4a5.88,5.88,0,0,1-1.1,3.2,9.58,9.58,0,0,1-2.1,2.3l-1.1.8,2.9,3.5a4.1,4.1,0,0,0,.9-2.8h5.9a11.93,11.93,0,0,1-.6,3.7,9.51,9.51,0,0,1-1.1,2.6l-.2.8ZM91.5,22a3.65,3.65,0,0,0,1.5-.3,5.42,5.42,0,0,0,1.1-.6l.3-.3-3.5-4.2c-.1.1-.3.2-.5.4a6.49,6.49,0,0,0-.9,1.1,2.66,2.66,0,0,0-.6,1.6,2.06,2.06,0,0,0,.7,1.7,2.71,2.71,0,0,0,1.9.6Zm2-15A1.9,1.9,0,0,0,93,5.7a1.9,1.9,0,0,0-1.3-.5,1.73,1.73,0,0,0-1.3.5A1.9,1.9,0,0,0,89.9,7a3,3,0,0,0,.5,1.4,3.53,3.53,0,0,0,.9,1.1l.5.4A4.28,4.28,0,0,0,93.5,7Z"/>
  <path d="M128.3,12.7a8.37,8.37,0,0,1,2.4,1.4,8.27,8.27,0,0,1,1.6,2,6.06,6.06,0,0,1,.8,3.2,7.31,7.31,0,0,1-.6,3,6.9,6.9,0,0,1-1.8,2.4,8.75,8.75,0,0,1-2.8,1.7,11.22,11.22,0,0,1-3.8.6H110.8V0h12.4a10.64,10.64,0,0,1,3.7.6,8.65,8.65,0,0,1,2.7,1.5,6.58,6.58,0,0,1,1.7,2.3,6.6,6.6,0,0,1,.6,2.7,5.26,5.26,0,0,1-.6,2.6,5.86,5.86,0,0,1-1.3,1.7,3.71,3.71,0,0,1-1.7,1.3Zm-10.1-2.1h3.4a2.27,2.27,0,0,0,1.8-.7,2.19,2.19,0,0,0,.7-1.7,2.19,2.19,0,0,0-.7-1.7,2.41,2.41,0,0,0-1.8-.7h-3.4v4.8Zm4.1,10.7a2.86,2.86,0,0,0,2.1-.8,2.66,2.66,0,0,0,.9-2,2.83,2.83,0,0,0-.9-2,2.78,2.78,0,0,0-2.1-.8h-4.1v5.6h4.1Zm31,5.8c-.4-.7-.9-1.6-1.4-2.5s-1-1.9-1.5-2.8c-.5-1.1-1.1-2.1-1.7-3.2H146v8.6h-7.5V.2h11.8a10.7,10.7,0,0,1,4.1.7,9.62,9.62,0,0,1,3.2,2,8.64,8.64,0,0,1,2.1,2.9,8.57,8.57,0,0,1,.7,3.6,7.54,7.54,0,0,1-.8,3.5,10.35,10.35,0,0,1-1.6,2.3,10.77,10.77,0,0,1-2.4,1.8l6,10.3h-8.3Zm-3.5-15.4a2.58,2.58,0,0,0,2-.7,2.29,2.29,0,0,0,.8-1.7,2,2,0,0,0-.8-1.7,2.72,2.72,0,0,0-2-.7H146v4.7h3.8Zm28.3-3.3-2.4,7.7h4.7l-2.3-7.7Zm-4,13.8-1.5,4.9h-7.9l9.2-27h8.6l9.2,27h-7.9l-1.5-4.9Zm28.3,4.9h-7.5V.1h7.5v27ZM231.9.1v27H225l-9.9-13.9V27.1h-7.5V.1h6.9L224.4,14V.1Z"/>
  <path d="M244.7,3.9a3.19,3.19,0,0,1-.3,1.4,8.35,8.35,0,0,1-.8,1.2,3.6,3.6,0,0,1-1.2.8,3.65,3.65,0,0,1-1.5.3,4,4,0,0,1-1.5-.3,3.68,3.68,0,0,1-2-2,3.19,3.19,0,0,1-.3-1.4,3.19,3.19,0,0,1,.3-1.4,8.35,8.35,0,0,1,.8-1.2,3.6,3.6,0,0,1,1.2-.8,3.65,3.65,0,0,1,1.5-.3,4,4,0,0,1,1.5.3,3.68,3.68,0,0,1,2,2,3.19,3.19,0,0,1,.3,1.4Zm-2.1-.7a.75.75,0,0,1-.1.5c-.1.1-.1.2-.2.3s-.2.2-.3.2l1,1.4a2.18,2.18,0,0,0,.5-.8,3,3,0,0,0,.2-1,3,3,0,0,0-.2-1,1.56,1.56,0,0,0-.6-.8,5.55,5.55,0,0,0-.8-.6,3.55,3.55,0,0,0-1-.2,3,3,0,0,0-1,.2,1.56,1.56,0,0,0-.8.6c-.2.3-.4.5-.6.8a3.55,3.55,0,0,0-.2,1,3,3,0,0,0,.2,1,1.56,1.56,0,0,0,.6.8,5.55,5.55,0,0,0,.8.6,3.55,3.55,0,0,0,1,.2,3,3,0,0,0,1-.2,2.36,2.36,0,0,0,.9-.6h-1.1l-.8-1.2h-.3V5.6h-1.1V1.9h1.6a.75.75,0,0,1,.5.1,1.38,1.38,0,0,1,.4.3,1.38,1.38,0,0,1,.3.4,1.09,1.09,0,0,1,.1.5Zm-1.5.3c.3,0,.4-.1.4-.3s-.1-.3-.4-.3h-.4v.6h.4Z"/>
  <path d="M266.6,5.3a1.8,1.8,0,0,1,.9.6,5.55,5.55,0,0,1,.6.8,2.5,2.5,0,0,1,.3,1.3,2.66,2.66,0,0,1-.3,1.2,3.59,3.59,0,0,1-.7,1,4.13,4.13,0,0,1-1.1.7,3.64,3.64,0,0,1-1.5.2h-5.3V.2h5a6.05,6.05,0,0,1,1.5.2,3.88,3.88,0,0,1,1.1.6,5.5,5.5,0,0,1,.7.9A2,2,0,0,1,268,3a3,3,0,0,1-.2,1,4.23,4.23,0,0,1-.5.7,1.34,1.34,0,0,1-.7.6Zm-4-.9H264a.91.91,0,0,0,.7-.3.91.91,0,0,0,.3-.7.91.91,0,0,0-.3-.7.91.91,0,0,0-.7-.3h-1.4v2Zm1.6,4.3a1.61,1.61,0,0,0,.9-.3,1.22,1.22,0,0,0,0-1.6,1.22,1.22,0,0,0-.9-.3h-1.6V8.7h1.6Zm12.9,2.4a9.29,9.29,0,0,1-.5-1A10.91,10.91,0,0,0,276,9a8.26,8.26,0,0,0-.7-1.3h-1.1v3.4h-3V.2h4.7a4.15,4.15,0,0,1,1.6.3,5.67,5.67,0,0,1,1.3.8,2.55,2.55,0,0,1,.8,1.2,3.19,3.19,0,0,1,.3,1.4,2.9,2.9,0,0,1-.3,1.4,3.49,3.49,0,0,1-.6.9,5.5,5.5,0,0,1-.9.7l2.4,4.1h-3.4Zm-1.4-6.2a1.14,1.14,0,0,0,.8-.3.91.91,0,0,0,.3-.7.91.91,0,0,0-.3-.7,1.14,1.14,0,0,0-.8-.3h-1.6V4.8h1.6Zm11.4-1.3-.9,3.1h1.9l-1-3.1Zm-1.7,5.5-.6,2h-3.2L285.3.2h3.4l3.7,10.9h-3.2l-.6-2ZM304.3.2V11.1h-2.8l-4-5.6v5.6h-3V.2h2.8l4,5.6V.2Zm7.1,8.1a3.55,3.55,0,0,0,1-.2,1.56,1.56,0,0,0,.8-.6,2.18,2.18,0,0,0,.5-.8,3.59,3.59,0,0,0,.2-1.1,3.59,3.59,0,0,0-.2-1.1,2.18,2.18,0,0,0-.5-.8,5.55,5.55,0,0,0-.8-.6,3,3,0,0,0-1-.2h-.9V8.2h.9Zm-4-8.1h4a5.38,5.38,0,0,1,2.2.4,7.84,7.84,0,0,1,1.8,1.1,4.52,4.52,0,0,1,1.1,1.7,5.38,5.38,0,0,1,.4,2.2,5.38,5.38,0,0,1-.4,2.2,7.12,7.12,0,0,1-1.1,1.7,4.18,4.18,0,0,1-1.8,1.1,5.38,5.38,0,0,1-2.2.4h-4V.2Zm15.2,10.9h-3V.2h3V11.1ZM335.5.2V11.1h-2.8l-4-5.6v5.6h-3V.2h2.8l4,5.6V.2Zm8.1,5H349v5.9h-2l-.4-1a5.55,5.55,0,0,1-.8.6,3,3,0,0,1-1,.4,5.07,5.07,0,0,1-1.3.2,5.22,5.22,0,0,1-2.1-.4,6.57,6.57,0,0,1-1.7-1.2,4.18,4.18,0,0,1-1.1-1.8,5.38,5.38,0,0,1-.4-2.2,5.38,5.38,0,0,1,.4-2.2,5.67,5.67,0,0,1,1.2-1.8A6.57,6.57,0,0,1,341.5.5a5.38,5.38,0,0,1,2.2-.4,5.9,5.9,0,0,1,1.4.2c.4.1.8.3,1.1.4l.9.6a4.62,4.62,0,0,1,.7.7,5,5,0,0,1,1,1.9l-3.1.3c-.1-.2-.3-.4-.4-.6s-.4-.3-.6-.4a3,3,0,0,0-1-.2,3.55,3.55,0,0,0-1,.2,1.56,1.56,0,0,0-.8.6,2.18,2.18,0,0,0-.5.8,3.59,3.59,0,0,0-.2,1.1,3.59,3.59,0,0,0,.2,1.1,2.18,2.18,0,0,0,.5.8,5.55,5.55,0,0,0,.8.6,2.6,2.6,0,0,0,2,0,.92.92,0,0,0,.6-.4,1,1,0,0,0,.4-.5h-2.2V5.2Z"/>
  <path d="M265,19.8l-.9,3.1H266l-1-3.1Zm-1.7,5.5-.6,2h-3.2l3.7-10.9h3.4l3.7,10.9h-3.2l-.6-2Zm13.9-3.9h5.4v5.9h-2l-.4-1a5.55,5.55,0,0,1-.8.6,3,3,0,0,1-1,.4,5.07,5.07,0,0,1-1.3.2,5,5,0,0,1-3.8-1.6,4.18,4.18,0,0,1-1.1-1.8,5.38,5.38,0,0,1-.4-2.2,5.38,5.38,0,0,1,.4-2.2,5.67,5.67,0,0,1,1.2-1.8,6.57,6.57,0,0,1,1.7-1.2,5.38,5.38,0,0,1,2.2-.4,5.9,5.9,0,0,1,1.4.2c.4.1.8.3,1.1.4l.9.6a4.62,4.62,0,0,1,.7.7,5,5,0,0,1,1,1.9l-3.1.3c-.1-.2-.3-.4-.4-.6s-.4-.3-.6-.4a3,3,0,0,0-1-.2,3.55,3.55,0,0,0-1,.2,1.56,1.56,0,0,0-.8.6,2.18,2.18,0,0,0-.5.8,3.12,3.12,0,0,0,0,2.2,2.18,2.18,0,0,0,.5.8,5.55,5.55,0,0,0,.8.6,2.6,2.6,0,0,0,2,0,.92.92,0,0,0,.6-.4,1,1,0,0,0,.4-.5h-2.2V21.4Zm8.3-5h8.1v2.7h-5.1v1.4h4.7v2.6h-4.7v1.6h5.3v2.7h-8.3v-11Zm20.8,0V27.3h-2.8l-4-5.6v5.6h-3V16.4h2.8l4,5.6V16.4Zm8.2,8.1a3,3,0,0,0,1-.2,1,1,0,0,0,.6-.5,1.61,1.61,0,0,0,.4-.7l3.1.3a4.71,4.71,0,0,1-.6,1.5,6.88,6.88,0,0,1-1.1,1.3,5.07,5.07,0,0,1-1.6.9,5.85,5.85,0,0,1-1.9.4,5.38,5.38,0,0,1-2.2-.4,7.07,7.07,0,0,1-1.8-1.2,5.68,5.68,0,0,1-1.2-1.8,5.38,5.38,0,0,1-.4-2.2,5.38,5.38,0,0,1,.4-2.2,5.52,5.52,0,0,1,3-3,5.38,5.38,0,0,1,2.2-.4,4.06,4.06,0,0,1,1.9.4,5.07,5.07,0,0,1,1.6.9,4.49,4.49,0,0,1,1.1,1.3,4.71,4.71,0,0,1,.6,1.5l-3.1.3a4.35,4.35,0,0,0-.4-.7c-.2-.2-.4-.3-.6-.5a3,3,0,0,0-1-.2,3.55,3.55,0,0,0-1,.2,1.56,1.56,0,0,0-.8.6,2.18,2.18,0,0,0-.5.8,3.12,3.12,0,0,0,0,2.2,2.18,2.18,0,0,0,.5.8,5.55,5.55,0,0,0,.8.6Zm10-1.2-3.7-6.9h3.3l1.9,4,1.9-4h3.3l-3.7,6.9v4h-3v-4Z"/>
</svg>
