<svg xmlns="http://www.w3.org/2000/svg" width="23" height="20.81" viewBox="0 0 23 20.81">
  <defs>
    <style>
      .cls-1 {
        fill: #0d73f4;
      }
    </style>
  </defs>
  <title>pin</title>
  <g id="Слой_2" data-name="Слой 2">
    <g id="Calque_2" data-name="Calque 2">
      <path class="cls-1" d="M2.81,20.81h0l4.82-.23c1.47,0,2.34-.81,3.89-2.36L22.06,7.68a3.2,3.2,0,0,0,0-4.53l-2-2a3.2,3.2,0,0,0-4.53,0L5.84,10.81a1.46,1.46,0,0,0-.44,1.06,1.47,1.47,0,0,0,.44,1.06l2,2A1.53,1.53,0,0,0,10,15l8.45-8.44-.91-.91L9.09,14.07a.21.21,0,0,1-.15.06.22.22,0,0,1-.15-.06L6.74,12a.22.22,0,0,1-.06-.15.21.21,0,0,1,.06-.15L16.42,2a1.93,1.93,0,0,1,2.72,0l2,2a1.93,1.93,0,0,1,0,2.72L10.61,17.32c-1.55,1.55-2.1,2-3,2l-4.82.23a1.49,1.49,0,0,1-1.5-1.47l.23-4.89c0-.87.41-1.37,2-3L12.81.91,11.9,0,2.59,9.31C1,10.9.23,11.73.23,13.14L0,18A2.79,2.79,0,0,0,2.81,20.81Z"/>
    </g>
  </g>
</svg>
